<mxfile host="Electron" modified="2023-10-30T07:37:46.975Z" agent="Mozilla/5.0 (Macintosh; Intel Mac OS X 10_15_7) AppleWebKit/537.36 (KHTML, like Gecko) draw.io/22.0.3 Chrome/114.0.5735.289 Electron/25.8.4 Safari/537.36" etag="yzIFNHeaYbP_Hf483pbg" version="22.0.3" type="device" pages="6">
  <diagram id="jqNWzx3AOMTOExcdyhMw" name="Overview">
    <mxGraphModel dx="1168" dy="586" grid="1" gridSize="10" guides="1" tooltips="1" connect="1" arrows="1" fold="1" page="1" pageScale="1" pageWidth="1169" pageHeight="827" math="0" shadow="0">
      <root>
        <mxCell id="0" />
        <mxCell id="1" parent="0" />
        <mxCell id="YtZtuXCsI5KkW_33dGa3-1" value="OverviewData" style="swimlane;html=1;fontStyle=1;align=center;verticalAlign=top;childLayout=stackLayout;horizontal=1;startSize=26;horizontalStack=0;resizeParent=1;resizeLast=0;collapsible=1;marginBottom=0;swimlaneFillColor=#ffffff;rounded=0;shadow=0;comic=0;labelBackgroundColor=none;strokeWidth=1;fillColor=none;fontFamily=Verdana;fontSize=12" parent="1" vertex="1">
          <mxGeometry x="20" y="140" width="240" height="110" as="geometry">
            <mxRectangle x="20" y="140" width="110" height="30" as="alternateBounds" />
          </mxGeometry>
        </mxCell>
        <mxCell id="YtZtuXCsI5KkW_33dGa3-4" value="+&amp;nbsp;nsOverview&lt;span style=&quot;background-color: initial;&quot;&gt;: ServicesOverview&lt;/span&gt;" style="text;html=1;strokeColor=none;fillColor=none;align=left;verticalAlign=top;spacingLeft=4;spacingRight=4;whiteSpace=wrap;overflow=hidden;rotatable=0;points=[[0,0.5],[1,0.5]];portConstraint=eastwest;" parent="YtZtuXCsI5KkW_33dGa3-1" vertex="1">
          <mxGeometry y="26" width="240" height="26" as="geometry" />
        </mxCell>
        <mxCell id="YtZtuXCsI5KkW_33dGa3-2" value="+ netOverview: NetworkOverview[]" style="text;html=1;strokeColor=none;fillColor=none;align=left;verticalAlign=top;spacingLeft=4;spacingRight=4;whiteSpace=wrap;overflow=hidden;rotatable=0;points=[[0,0.5],[1,0.5]];portConstraint=eastwest;" parent="YtZtuXCsI5KkW_33dGa3-1" vertex="1">
          <mxGeometry y="52" width="240" height="26" as="geometry" />
        </mxCell>
        <mxCell id="YtZtuXCsI5KkW_33dGa3-5" value="+ cpOverview: ControlplaneOverview" style="text;html=1;strokeColor=none;fillColor=none;align=left;verticalAlign=top;spacingLeft=4;spacingRight=4;whiteSpace=wrap;overflow=hidden;rotatable=0;points=[[0,0.5],[1,0.5]];portConstraint=eastwest;" parent="YtZtuXCsI5KkW_33dGa3-1" vertex="1">
          <mxGeometry y="78" width="240" height="26" as="geometry" />
        </mxCell>
        <mxCell id="YtZtuXCsI5KkW_33dGa3-11" value="ControlplaneOverview" style="swimlane;html=1;fontStyle=1;align=center;verticalAlign=top;childLayout=stackLayout;horizontal=1;startSize=26;horizontalStack=0;resizeParent=1;resizeLast=0;collapsible=1;marginBottom=0;swimlaneFillColor=#ffffff;rounded=0;shadow=0;comic=0;labelBackgroundColor=none;strokeWidth=1;fillColor=none;fontFamily=Verdana;fontSize=12" parent="1" vertex="1">
          <mxGeometry x="320" y="480" width="240" height="80" as="geometry">
            <mxRectangle x="90" y="83" width="110" height="30" as="alternateBounds" />
          </mxGeometry>
        </mxCell>
        <mxCell id="YtZtuXCsI5KkW_33dGa3-12" value="+ requestStatistics: RequestStatistics[]" style="text;html=1;strokeColor=none;fillColor=none;align=left;verticalAlign=top;spacingLeft=4;spacingRight=4;whiteSpace=wrap;overflow=hidden;rotatable=0;points=[[0,0.5],[1,0.5]];portConstraint=eastwest;" parent="YtZtuXCsI5KkW_33dGa3-11" vertex="1">
          <mxGeometry y="26" width="240" height="26" as="geometry" />
        </mxCell>
        <mxCell id="YtZtuXCsI5KkW_33dGa3-13" value="+ workloadsByType: WorkloadsByType[]" style="text;html=1;strokeColor=none;fillColor=none;align=left;verticalAlign=top;spacingLeft=4;spacingRight=4;whiteSpace=wrap;overflow=hidden;rotatable=0;points=[[0,0.5],[1,0.5]];portConstraint=eastwest;" parent="YtZtuXCsI5KkW_33dGa3-11" vertex="1">
          <mxGeometry y="52" width="240" height="26" as="geometry" />
        </mxCell>
        <mxCell id="YtZtuXCsI5KkW_33dGa3-16" value="NetworkOverview" style="swimlane;html=1;fontStyle=1;align=center;verticalAlign=top;childLayout=stackLayout;horizontal=1;startSize=26;horizontalStack=0;resizeParent=1;resizeLast=0;collapsible=1;marginBottom=0;swimlaneFillColor=#ffffff;rounded=0;shadow=0;comic=0;labelBackgroundColor=none;strokeWidth=1;fillColor=none;fontFamily=Verdana;fontSize=12" parent="1" vertex="1">
          <mxGeometry x="320" y="140" width="270" height="320" as="geometry">
            <mxRectangle x="90" y="83" width="110" height="30" as="alternateBounds" />
          </mxGeometry>
        </mxCell>
        <mxCell id="YtZtuXCsI5KkW_33dGa3-17" value="+ date: DateTime" style="text;html=1;strokeColor=none;fillColor=none;align=left;verticalAlign=top;spacingLeft=4;spacingRight=4;whiteSpace=wrap;overflow=hidden;rotatable=0;points=[[0,0.5],[1,0.5]];portConstraint=eastwest;" parent="YtZtuXCsI5KkW_33dGa3-16" vertex="1">
          <mxGeometry y="26" width="270" height="26" as="geometry" />
        </mxCell>
        <mxCell id="YtZtuXCsI5KkW_33dGa3-18" value="+&amp;nbsp;clientTxBytes&lt;span style=&quot;background-color: initial;&quot;&gt;: number&lt;/span&gt;" style="text;html=1;strokeColor=none;fillColor=none;align=left;verticalAlign=top;spacingLeft=4;spacingRight=4;whiteSpace=wrap;overflow=hidden;rotatable=0;points=[[0,0.5],[1,0.5]];portConstraint=eastwest;" parent="YtZtuXCsI5KkW_33dGa3-16" vertex="1">
          <mxGeometry y="52" width="270" height="26" as="geometry" />
        </mxCell>
        <mxCell id="YtZtuXCsI5KkW_33dGa3-19" value="+&amp;nbsp;clientRxBytes&lt;span style=&quot;background-color: initial;&quot;&gt;: number&lt;/span&gt;" style="text;html=1;strokeColor=none;fillColor=none;align=left;verticalAlign=top;spacingLeft=4;spacingRight=4;whiteSpace=wrap;overflow=hidden;rotatable=0;points=[[0,0.5],[1,0.5]];portConstraint=eastwest;" parent="YtZtuXCsI5KkW_33dGa3-16" vertex="1">
          <mxGeometry y="78" width="270" height="26" as="geometry" />
        </mxCell>
        <mxCell id="iQH9HJLVmj-hFbS_bZAD-1" value="+ serverTxBytes&lt;span style=&quot;background-color: initial;&quot;&gt;: number&lt;/span&gt;" style="text;html=1;strokeColor=none;fillColor=none;align=left;verticalAlign=top;spacingLeft=4;spacingRight=4;whiteSpace=wrap;overflow=hidden;rotatable=0;points=[[0,0.5],[1,0.5]];portConstraint=eastwest;" parent="YtZtuXCsI5KkW_33dGa3-16" vertex="1">
          <mxGeometry y="104" width="270" height="26" as="geometry" />
        </mxCell>
        <mxCell id="iQH9HJLVmj-hFbS_bZAD-2" value="+ serverRxBytes&lt;span style=&quot;background-color: initial;&quot;&gt;: number&lt;/span&gt;" style="text;html=1;strokeColor=none;fillColor=none;align=left;verticalAlign=top;spacingLeft=4;spacingRight=4;whiteSpace=wrap;overflow=hidden;rotatable=0;points=[[0,0.5],[1,0.5]];portConstraint=eastwest;" parent="YtZtuXCsI5KkW_33dGa3-16" vertex="1">
          <mxGeometry y="130" width="270" height="26" as="geometry" />
        </mxCell>
        <mxCell id="iQH9HJLVmj-hFbS_bZAD-3" value="+&amp;nbsp;clientTxPackets&lt;span style=&quot;background-color: initial;&quot;&gt;: number&lt;/span&gt;" style="text;html=1;strokeColor=none;fillColor=none;align=left;verticalAlign=top;spacingLeft=4;spacingRight=4;whiteSpace=wrap;overflow=hidden;rotatable=0;points=[[0,0.5],[1,0.5]];portConstraint=eastwest;" parent="YtZtuXCsI5KkW_33dGa3-16" vertex="1">
          <mxGeometry y="156" width="270" height="26" as="geometry" />
        </mxCell>
        <mxCell id="iQH9HJLVmj-hFbS_bZAD-4" value="+&amp;nbsp;clientRxPackets&lt;span style=&quot;background-color: initial;&quot;&gt;: number&lt;/span&gt;" style="text;html=1;strokeColor=none;fillColor=none;align=left;verticalAlign=top;spacingLeft=4;spacingRight=4;whiteSpace=wrap;overflow=hidden;rotatable=0;points=[[0,0.5],[1,0.5]];portConstraint=eastwest;" parent="YtZtuXCsI5KkW_33dGa3-16" vertex="1">
          <mxGeometry y="182" width="270" height="26" as="geometry" />
        </mxCell>
        <mxCell id="iQH9HJLVmj-hFbS_bZAD-5" value="+ serverTxPackets&lt;span style=&quot;background-color: initial;&quot;&gt;: number&lt;/span&gt;" style="text;html=1;strokeColor=none;fillColor=none;align=left;verticalAlign=top;spacingLeft=4;spacingRight=4;whiteSpace=wrap;overflow=hidden;rotatable=0;points=[[0,0.5],[1,0.5]];portConstraint=eastwest;" parent="YtZtuXCsI5KkW_33dGa3-16" vertex="1">
          <mxGeometry y="208" width="270" height="26" as="geometry" />
        </mxCell>
        <mxCell id="iQH9HJLVmj-hFbS_bZAD-6" value="+ serverRxPackets&lt;span style=&quot;background-color: initial;&quot;&gt;: number&lt;/span&gt;" style="text;html=1;strokeColor=none;fillColor=none;align=left;verticalAlign=top;spacingLeft=4;spacingRight=4;whiteSpace=wrap;overflow=hidden;rotatable=0;points=[[0,0.5],[1,0.5]];portConstraint=eastwest;" parent="YtZtuXCsI5KkW_33dGa3-16" vertex="1">
          <mxGeometry y="234" width="270" height="26" as="geometry" />
        </mxCell>
        <mxCell id="iQH9HJLVmj-hFbS_bZAD-7" value="+&amp;nbsp;clientDrops&lt;span style=&quot;background-color: initial;&quot;&gt;: number&lt;/span&gt;" style="text;html=1;strokeColor=none;fillColor=none;align=left;verticalAlign=top;spacingLeft=4;spacingRight=4;whiteSpace=wrap;overflow=hidden;rotatable=0;points=[[0,0.5],[1,0.5]];portConstraint=eastwest;" parent="YtZtuXCsI5KkW_33dGa3-16" vertex="1">
          <mxGeometry y="260" width="270" height="26" as="geometry" />
        </mxCell>
        <mxCell id="iQH9HJLVmj-hFbS_bZAD-10" value="+&amp;nbsp;serverDrops&lt;span style=&quot;background-color: initial;&quot;&gt;: number&lt;/span&gt;" style="text;html=1;strokeColor=none;fillColor=none;align=left;verticalAlign=top;spacingLeft=4;spacingRight=4;whiteSpace=wrap;overflow=hidden;rotatable=0;points=[[0,0.5],[1,0.5]];portConstraint=eastwest;" parent="YtZtuXCsI5KkW_33dGa3-16" vertex="1">
          <mxGeometry y="286" width="270" height="26" as="geometry" />
        </mxCell>
        <mxCell id="YtZtuXCsI5KkW_33dGa3-22" value="ServicesByEndpointsCount" style="swimlane;html=1;fontStyle=1;align=center;verticalAlign=top;childLayout=stackLayout;horizontal=1;startSize=26;horizontalStack=0;resizeParent=1;resizeLast=0;collapsible=1;marginBottom=0;swimlaneFillColor=#ffffff;rounded=0;shadow=0;comic=0;labelBackgroundColor=none;strokeWidth=1;fillColor=none;fontFamily=Verdana;fontSize=12" parent="1" vertex="1">
          <mxGeometry x="720" y="39" width="220" height="80" as="geometry">
            <mxRectangle x="90" y="83" width="110" height="30" as="alternateBounds" />
          </mxGeometry>
        </mxCell>
        <mxCell id="YtZtuXCsI5KkW_33dGa3-23" value="+ nsName: string" style="text;html=1;strokeColor=none;fillColor=none;align=left;verticalAlign=top;spacingLeft=4;spacingRight=4;whiteSpace=wrap;overflow=hidden;rotatable=0;points=[[0,0.5],[1,0.5]];portConstraint=eastwest;" parent="YtZtuXCsI5KkW_33dGa3-22" vertex="1">
          <mxGeometry y="26" width="220" height="26" as="geometry" />
        </mxCell>
        <mxCell id="YtZtuXCsI5KkW_33dGa3-24" value="+ endpointsCount&lt;span style=&quot;background-color: initial;&quot;&gt;: number&lt;/span&gt;" style="text;html=1;strokeColor=none;fillColor=none;align=left;verticalAlign=top;spacingLeft=4;spacingRight=4;whiteSpace=wrap;overflow=hidden;rotatable=0;points=[[0,0.5],[1,0.5]];portConstraint=eastwest;" parent="YtZtuXCsI5KkW_33dGa3-22" vertex="1">
          <mxGeometry y="52" width="220" height="26" as="geometry" />
        </mxCell>
        <mxCell id="YtZtuXCsI5KkW_33dGa3-29" value="ServicesOverview" style="swimlane;html=1;fontStyle=1;align=center;verticalAlign=top;childLayout=stackLayout;horizontal=1;startSize=26;horizontalStack=0;resizeParent=1;resizeLast=0;collapsible=1;marginBottom=0;swimlaneFillColor=#ffffff;rounded=0;shadow=0;comic=0;labelBackgroundColor=none;strokeWidth=1;fillColor=none;fontFamily=Verdana;fontSize=12" parent="1" vertex="1">
          <mxGeometry x="320" y="40" width="330" height="90" as="geometry">
            <mxRectangle x="90" y="83" width="110" height="30" as="alternateBounds" />
          </mxGeometry>
        </mxCell>
        <mxCell id="YtZtuXCsI5KkW_33dGa3-30" value="+ servicesByEndpointsCount: ServicesByEndpointsCount[]" style="text;html=1;strokeColor=none;fillColor=none;align=left;verticalAlign=top;spacingLeft=4;spacingRight=4;whiteSpace=wrap;overflow=hidden;rotatable=0;points=[[0,0.5],[1,0.5]];portConstraint=eastwest;" parent="YtZtuXCsI5KkW_33dGa3-29" vertex="1">
          <mxGeometry y="26" width="330" height="26" as="geometry" />
        </mxCell>
        <mxCell id="YtZtuXCsI5KkW_33dGa3-31" value="+ servicesByClientsCount&lt;span style=&quot;background-color: initial;&quot;&gt;: S&lt;/span&gt;ervicesByClientsCount[]" style="text;html=1;strokeColor=none;fillColor=none;align=left;verticalAlign=top;spacingLeft=4;spacingRight=4;whiteSpace=wrap;overflow=hidden;rotatable=0;points=[[0,0.5],[1,0.5]];portConstraint=eastwest;" parent="YtZtuXCsI5KkW_33dGa3-29" vertex="1">
          <mxGeometry y="52" width="330" height="26" as="geometry" />
        </mxCell>
        <mxCell id="iQH9HJLVmj-hFbS_bZAD-11" style="edgeStyle=orthogonalEdgeStyle;rounded=0;orthogonalLoop=1;jettySize=auto;html=1;exitX=1;exitY=0.5;exitDx=0;exitDy=0;entryX=1;entryY=0.5;entryDx=0;entryDy=0;" parent="YtZtuXCsI5KkW_33dGa3-29" source="YtZtuXCsI5KkW_33dGa3-31" target="YtZtuXCsI5KkW_33dGa3-31" edge="1">
          <mxGeometry relative="1" as="geometry" />
        </mxCell>
        <mxCell id="YtZtuXCsI5KkW_33dGa3-39" value="&lt;div style=&quot;text-align: center;&quot;&gt;&lt;span style=&quot;text-align: left; background-color: initial;&quot;&gt;S&lt;/span&gt;&lt;span style=&quot;font-family: Helvetica; text-align: left; background-color: initial;&quot;&gt;ervicesByClientsCount&lt;/span&gt;&lt;/div&gt;" style="swimlane;html=1;fontStyle=1;align=center;verticalAlign=top;childLayout=stackLayout;horizontal=1;startSize=26;horizontalStack=0;resizeParent=1;resizeLast=0;collapsible=1;marginBottom=0;swimlaneFillColor=#ffffff;rounded=0;shadow=0;comic=0;labelBackgroundColor=none;strokeWidth=1;fillColor=none;fontFamily=Verdana;fontSize=12" parent="1" vertex="1">
          <mxGeometry x="720" y="140" width="220" height="87" as="geometry">
            <mxRectangle x="90" y="83" width="110" height="30" as="alternateBounds" />
          </mxGeometry>
        </mxCell>
        <mxCell id="YtZtuXCsI5KkW_33dGa3-41" value="+ nsName&lt;span style=&quot;background-color: initial;&quot;&gt;: string&lt;/span&gt;" style="text;html=1;strokeColor=none;fillColor=none;align=left;verticalAlign=top;spacingLeft=4;spacingRight=4;whiteSpace=wrap;overflow=hidden;rotatable=0;points=[[0,0.5],[1,0.5]];portConstraint=eastwest;" parent="YtZtuXCsI5KkW_33dGa3-39" vertex="1">
          <mxGeometry y="26" width="220" height="26" as="geometry" />
        </mxCell>
        <mxCell id="YtZtuXCsI5KkW_33dGa3-44" value="+ clientsCount: number&amp;nbsp;" style="text;html=1;strokeColor=none;fillColor=none;align=left;verticalAlign=top;spacingLeft=4;spacingRight=4;whiteSpace=wrap;overflow=hidden;rotatable=0;points=[[0,0.5],[1,0.5]];portConstraint=eastwest;" parent="YtZtuXCsI5KkW_33dGa3-39" vertex="1">
          <mxGeometry y="52" width="220" height="26" as="geometry" />
        </mxCell>
        <mxCell id="YtZtuXCsI5KkW_33dGa3-48" style="edgeStyle=orthogonalEdgeStyle;rounded=0;orthogonalLoop=1;jettySize=auto;html=1;exitX=1;exitY=0.5;exitDx=0;exitDy=0;entryX=-0.009;entryY=0.082;entryDx=0;entryDy=0;entryPerimeter=0;" parent="1" source="YtZtuXCsI5KkW_33dGa3-30" target="YtZtuXCsI5KkW_33dGa3-22" edge="1">
          <mxGeometry relative="1" as="geometry">
            <mxPoint x="590" y="189" as="sourcePoint" />
            <Array as="points">
              <mxPoint x="680" y="79" />
              <mxPoint x="680" y="46" />
            </Array>
          </mxGeometry>
        </mxCell>
        <mxCell id="YtZtuXCsI5KkW_33dGa3-51" style="edgeStyle=orthogonalEdgeStyle;rounded=0;orthogonalLoop=1;jettySize=auto;html=1;exitX=1;exitY=0.5;exitDx=0;exitDy=0;entryX=0;entryY=0.15;entryDx=0;entryDy=0;entryPerimeter=0;" parent="1" source="YtZtuXCsI5KkW_33dGa3-5" target="YtZtuXCsI5KkW_33dGa3-11" edge="1">
          <mxGeometry relative="1" as="geometry">
            <mxPoint x="260" y="283" as="sourcePoint" />
          </mxGeometry>
        </mxCell>
        <mxCell id="iQH9HJLVmj-hFbS_bZAD-12" value="" style="edgeStyle=orthogonalEdgeStyle;rounded=0;orthogonalLoop=1;jettySize=auto;html=1;entryX=-0.006;entryY=0.199;entryDx=0;entryDy=0;entryPerimeter=0;" parent="1" source="YtZtuXCsI5KkW_33dGa3-31" target="YtZtuXCsI5KkW_33dGa3-39" edge="1">
          <mxGeometry relative="1" as="geometry">
            <Array as="points">
              <mxPoint x="680" y="105" />
              <mxPoint x="680" y="157" />
            </Array>
          </mxGeometry>
        </mxCell>
        <mxCell id="iQH9HJLVmj-hFbS_bZAD-14" style="edgeStyle=orthogonalEdgeStyle;rounded=0;orthogonalLoop=1;jettySize=auto;html=1;exitX=1;exitY=0.5;exitDx=0;exitDy=0;entryX=0;entryY=0.111;entryDx=0;entryDy=0;entryPerimeter=0;" parent="1" source="YtZtuXCsI5KkW_33dGa3-4" target="YtZtuXCsI5KkW_33dGa3-29" edge="1">
          <mxGeometry relative="1" as="geometry">
            <mxPoint x="270" y="241" as="sourcePoint" />
            <mxPoint x="330" y="502" as="targetPoint" />
          </mxGeometry>
        </mxCell>
        <mxCell id="iQH9HJLVmj-hFbS_bZAD-15" style="edgeStyle=orthogonalEdgeStyle;rounded=0;orthogonalLoop=1;jettySize=auto;html=1;exitX=1;exitY=0.5;exitDx=0;exitDy=0;entryX=-0.003;entryY=0.033;entryDx=0;entryDy=0;entryPerimeter=0;" parent="1" source="YtZtuXCsI5KkW_33dGa3-2" target="YtZtuXCsI5KkW_33dGa3-16" edge="1">
          <mxGeometry relative="1" as="geometry">
            <mxPoint x="270" y="189" as="sourcePoint" />
            <mxPoint x="330" y="60" as="targetPoint" />
            <Array as="points">
              <mxPoint x="300" y="205" />
              <mxPoint x="300" y="151" />
            </Array>
          </mxGeometry>
        </mxCell>
        <mxCell id="iQH9HJLVmj-hFbS_bZAD-19" value="RequestStatistics" style="swimlane;html=1;fontStyle=1;align=center;verticalAlign=top;childLayout=stackLayout;horizontal=1;startSize=26;horizontalStack=0;resizeParent=1;resizeLast=0;collapsible=1;marginBottom=0;swimlaneFillColor=#ffffff;rounded=0;shadow=0;comic=0;labelBackgroundColor=none;strokeWidth=1;fillColor=none;fontFamily=Verdana;fontSize=12" parent="1" vertex="1">
          <mxGeometry x="670" y="320" width="270" height="364" as="geometry">
            <mxRectangle x="90" y="83" width="110" height="30" as="alternateBounds" />
          </mxGeometry>
        </mxCell>
        <mxCell id="iQH9HJLVmj-hFbS_bZAD-20" value="+ date: DateTime" style="text;html=1;strokeColor=none;fillColor=none;align=left;verticalAlign=top;spacingLeft=4;spacingRight=4;whiteSpace=wrap;overflow=hidden;rotatable=0;points=[[0,0.5],[1,0.5]];portConstraint=eastwest;" parent="iQH9HJLVmj-hFbS_bZAD-19" vertex="1">
          <mxGeometry y="26" width="270" height="26" as="geometry" />
        </mxCell>
        <mxCell id="iQH9HJLVmj-hFbS_bZAD-21" value="+&amp;nbsp;requestSuccess&lt;span style=&quot;background-color: initial;&quot;&gt;: number&lt;/span&gt;" style="text;html=1;strokeColor=none;fillColor=none;align=left;verticalAlign=top;spacingLeft=4;spacingRight=4;whiteSpace=wrap;overflow=hidden;rotatable=0;points=[[0,0.5],[1,0.5]];portConstraint=eastwest;" parent="iQH9HJLVmj-hFbS_bZAD-19" vertex="1">
          <mxGeometry y="52" width="270" height="26" as="geometry" />
        </mxCell>
        <mxCell id="iQH9HJLVmj-hFbS_bZAD-22" value="+&amp;nbsp;closeSuccess&lt;span style=&quot;background-color: initial;&quot;&gt;: number&lt;/span&gt;" style="text;html=1;strokeColor=none;fillColor=none;align=left;verticalAlign=top;spacingLeft=4;spacingRight=4;whiteSpace=wrap;overflow=hidden;rotatable=0;points=[[0,0.5],[1,0.5]];portConstraint=eastwest;" parent="iQH9HJLVmj-hFbS_bZAD-19" vertex="1">
          <mxGeometry y="78" width="270" height="26" as="geometry" />
        </mxCell>
        <mxCell id="iQH9HJLVmj-hFbS_bZAD-23" value="+ registerSuccess&lt;span style=&quot;background-color: initial;&quot;&gt;: number&lt;/span&gt;" style="text;html=1;strokeColor=none;fillColor=none;align=left;verticalAlign=top;spacingLeft=4;spacingRight=4;whiteSpace=wrap;overflow=hidden;rotatable=0;points=[[0,0.5],[1,0.5]];portConstraint=eastwest;" parent="iQH9HJLVmj-hFbS_bZAD-19" vertex="1">
          <mxGeometry y="104" width="270" height="26" as="geometry" />
        </mxCell>
        <mxCell id="iQH9HJLVmj-hFbS_bZAD-24" value="+ unregisterSuccess&lt;span style=&quot;background-color: initial;&quot;&gt;: number&lt;/span&gt;" style="text;html=1;strokeColor=none;fillColor=none;align=left;verticalAlign=top;spacingLeft=4;spacingRight=4;whiteSpace=wrap;overflow=hidden;rotatable=0;points=[[0,0.5],[1,0.5]];portConstraint=eastwest;" parent="iQH9HJLVmj-hFbS_bZAD-19" vertex="1">
          <mxGeometry y="130" width="270" height="26" as="geometry" />
        </mxCell>
        <mxCell id="iQH9HJLVmj-hFbS_bZAD-25" value="+&amp;nbsp;findSuccess&lt;span style=&quot;background-color: initial;&quot;&gt;: number&lt;/span&gt;" style="text;html=1;strokeColor=none;fillColor=none;align=left;verticalAlign=top;spacingLeft=4;spacingRight=4;whiteSpace=wrap;overflow=hidden;rotatable=0;points=[[0,0.5],[1,0.5]];portConstraint=eastwest;" parent="iQH9HJLVmj-hFbS_bZAD-19" vertex="1">
          <mxGeometry y="156" width="270" height="26" as="geometry" />
        </mxCell>
        <mxCell id="iQH9HJLVmj-hFbS_bZAD-26" value="+&amp;nbsp;monitorSuccess&lt;span style=&quot;background-color: initial;&quot;&gt;: number&lt;/span&gt;" style="text;html=1;strokeColor=none;fillColor=none;align=left;verticalAlign=top;spacingLeft=4;spacingRight=4;whiteSpace=wrap;overflow=hidden;rotatable=0;points=[[0,0.5],[1,0.5]];portConstraint=eastwest;" parent="iQH9HJLVmj-hFbS_bZAD-19" vertex="1">
          <mxGeometry y="182" width="270" height="26" as="geometry" />
        </mxCell>
        <mxCell id="iQH9HJLVmj-hFbS_bZAD-32" value="+&amp;nbsp;requestFault&lt;span style=&quot;background-color: initial;&quot;&gt;: number&lt;/span&gt;" style="text;html=1;strokeColor=none;fillColor=none;align=left;verticalAlign=top;spacingLeft=4;spacingRight=4;whiteSpace=wrap;overflow=hidden;rotatable=0;points=[[0,0.5],[1,0.5]];portConstraint=eastwest;" parent="iQH9HJLVmj-hFbS_bZAD-19" vertex="1">
          <mxGeometry y="208" width="270" height="26" as="geometry" />
        </mxCell>
        <mxCell id="iQH9HJLVmj-hFbS_bZAD-33" value="+&amp;nbsp;closeFault&lt;span style=&quot;background-color: initial;&quot;&gt;: number&lt;/span&gt;" style="text;html=1;strokeColor=none;fillColor=none;align=left;verticalAlign=top;spacingLeft=4;spacingRight=4;whiteSpace=wrap;overflow=hidden;rotatable=0;points=[[0,0.5],[1,0.5]];portConstraint=eastwest;" parent="iQH9HJLVmj-hFbS_bZAD-19" vertex="1">
          <mxGeometry y="234" width="270" height="26" as="geometry" />
        </mxCell>
        <mxCell id="iQH9HJLVmj-hFbS_bZAD-34" value="+ registerFault&lt;span style=&quot;background-color: initial;&quot;&gt;: number&lt;/span&gt;" style="text;html=1;strokeColor=none;fillColor=none;align=left;verticalAlign=top;spacingLeft=4;spacingRight=4;whiteSpace=wrap;overflow=hidden;rotatable=0;points=[[0,0.5],[1,0.5]];portConstraint=eastwest;" parent="iQH9HJLVmj-hFbS_bZAD-19" vertex="1">
          <mxGeometry y="260" width="270" height="26" as="geometry" />
        </mxCell>
        <mxCell id="iQH9HJLVmj-hFbS_bZAD-35" value="+ unregisterFault&lt;span style=&quot;background-color: initial;&quot;&gt;: number&lt;/span&gt;" style="text;html=1;strokeColor=none;fillColor=none;align=left;verticalAlign=top;spacingLeft=4;spacingRight=4;whiteSpace=wrap;overflow=hidden;rotatable=0;points=[[0,0.5],[1,0.5]];portConstraint=eastwest;" parent="iQH9HJLVmj-hFbS_bZAD-19" vertex="1">
          <mxGeometry y="286" width="270" height="26" as="geometry" />
        </mxCell>
        <mxCell id="iQH9HJLVmj-hFbS_bZAD-36" value="+&amp;nbsp;findFault&lt;span style=&quot;background-color: initial;&quot;&gt;: number&lt;/span&gt;" style="text;html=1;strokeColor=none;fillColor=none;align=left;verticalAlign=top;spacingLeft=4;spacingRight=4;whiteSpace=wrap;overflow=hidden;rotatable=0;points=[[0,0.5],[1,0.5]];portConstraint=eastwest;" parent="iQH9HJLVmj-hFbS_bZAD-19" vertex="1">
          <mxGeometry y="312" width="270" height="26" as="geometry" />
        </mxCell>
        <mxCell id="iQH9HJLVmj-hFbS_bZAD-37" value="+&amp;nbsp;monitorFault&lt;span style=&quot;background-color: initial;&quot;&gt;: number&lt;/span&gt;" style="text;html=1;strokeColor=none;fillColor=none;align=left;verticalAlign=top;spacingLeft=4;spacingRight=4;whiteSpace=wrap;overflow=hidden;rotatable=0;points=[[0,0.5],[1,0.5]];portConstraint=eastwest;" parent="iQH9HJLVmj-hFbS_bZAD-19" vertex="1">
          <mxGeometry y="338" width="270" height="26" as="geometry" />
        </mxCell>
        <mxCell id="iQH9HJLVmj-hFbS_bZAD-38" value="" style="edgeStyle=orthogonalEdgeStyle;rounded=0;orthogonalLoop=1;jettySize=auto;html=1;exitX=1;exitY=0.5;exitDx=0;exitDy=0;entryX=-0.003;entryY=0.055;entryDx=0;entryDy=0;entryPerimeter=0;" parent="1" source="YtZtuXCsI5KkW_33dGa3-12" target="iQH9HJLVmj-hFbS_bZAD-19" edge="1">
          <mxGeometry relative="1" as="geometry">
            <mxPoint x="660" y="115" as="sourcePoint" />
            <mxPoint x="660" y="340" as="targetPoint" />
            <Array as="points">
              <mxPoint x="620" y="519" />
              <mxPoint x="620" y="340" />
            </Array>
          </mxGeometry>
        </mxCell>
        <mxCell id="iQH9HJLVmj-hFbS_bZAD-39" value="&lt;div style=&quot;text-align: center;&quot;&gt;WorkloadsByType&lt;br&gt;&lt;/div&gt;" style="swimlane;html=1;fontStyle=1;align=center;verticalAlign=top;childLayout=stackLayout;horizontal=1;startSize=26;horizontalStack=0;resizeParent=1;resizeLast=0;collapsible=1;marginBottom=0;swimlaneFillColor=#ffffff;rounded=0;shadow=0;comic=0;labelBackgroundColor=none;strokeWidth=1;fillColor=none;fontFamily=Verdana;fontSize=12" parent="1" vertex="1">
          <mxGeometry x="670" y="700" width="220" height="87" as="geometry">
            <mxRectangle x="90" y="83" width="110" height="30" as="alternateBounds" />
          </mxGeometry>
        </mxCell>
        <mxCell id="iQH9HJLVmj-hFbS_bZAD-40" value="+ workloadType&lt;span style=&quot;background-color: initial;&quot;&gt;: enum&lt;/span&gt;" style="text;html=1;strokeColor=none;fillColor=none;align=left;verticalAlign=top;spacingLeft=4;spacingRight=4;whiteSpace=wrap;overflow=hidden;rotatable=0;points=[[0,0.5],[1,0.5]];portConstraint=eastwest;" parent="iQH9HJLVmj-hFbS_bZAD-39" vertex="1">
          <mxGeometry y="26" width="220" height="26" as="geometry" />
        </mxCell>
        <mxCell id="iQH9HJLVmj-hFbS_bZAD-41" value="+ itemsCount: number&amp;nbsp;" style="text;html=1;strokeColor=none;fillColor=none;align=left;verticalAlign=top;spacingLeft=4;spacingRight=4;whiteSpace=wrap;overflow=hidden;rotatable=0;points=[[0,0.5],[1,0.5]];portConstraint=eastwest;" parent="iQH9HJLVmj-hFbS_bZAD-39" vertex="1">
          <mxGeometry y="52" width="220" height="26" as="geometry" />
        </mxCell>
        <mxCell id="iQH9HJLVmj-hFbS_bZAD-42" value="" style="edgeStyle=orthogonalEdgeStyle;rounded=0;orthogonalLoop=1;jettySize=auto;html=1;exitX=1;exitY=0.5;exitDx=0;exitDy=0;entryX=-0.006;entryY=0.117;entryDx=0;entryDy=0;entryPerimeter=0;" parent="1" source="YtZtuXCsI5KkW_33dGa3-13" target="iQH9HJLVmj-hFbS_bZAD-39" edge="1">
          <mxGeometry relative="1" as="geometry">
            <mxPoint x="570" y="529" as="sourcePoint" />
            <mxPoint x="650" y="710" as="targetPoint" />
            <Array as="points">
              <mxPoint x="560" y="529" />
              <mxPoint x="620" y="529" />
              <mxPoint x="620" y="710" />
              <mxPoint x="669" y="710" />
            </Array>
          </mxGeometry>
        </mxCell>
      </root>
    </mxGraphModel>
  </diagram>
  <diagram id="rfT4ig4OUz129FJ95_H_" name="GraphData">
    <mxGraphModel dx="928" dy="586" grid="1" gridSize="10" guides="1" tooltips="1" connect="1" arrows="1" fold="1" page="1" pageScale="1" pageWidth="1169" pageHeight="827" math="0" shadow="0">
      <root>
        <mxCell id="0" />
        <mxCell id="1" parent="0" />
        <mxCell id="l4nzv7WgrrFAioki1QtH-1" value="GraphData" style="swimlane;html=1;fontStyle=1;align=center;verticalAlign=top;childLayout=stackLayout;horizontal=1;startSize=26;horizontalStack=0;resizeParent=1;resizeLast=0;collapsible=1;marginBottom=0;swimlaneFillColor=#ffffff;rounded=0;shadow=0;comic=0;labelBackgroundColor=none;strokeWidth=1;fillColor=none;fontFamily=Verdana;fontSize=12" parent="1" vertex="1">
          <mxGeometry x="40" y="80" width="240" height="110" as="geometry">
            <mxRectangle x="90" y="83" width="110" height="30" as="alternateBounds" />
          </mxGeometry>
        </mxCell>
        <mxCell id="l4nzv7WgrrFAioki1QtH-2" value="+ nodes: GraphNode[]" style="text;html=1;strokeColor=none;fillColor=none;align=left;verticalAlign=top;spacingLeft=4;spacingRight=4;whiteSpace=wrap;overflow=hidden;rotatable=0;points=[[0,0.5],[1,0.5]];portConstraint=eastwest;" parent="l4nzv7WgrrFAioki1QtH-1" vertex="1">
          <mxGeometry y="26" width="240" height="26" as="geometry" />
        </mxCell>
        <mxCell id="l4nzv7WgrrFAioki1QtH-3" value="+ nodeGroups: GraphNodeGroup[]" style="text;html=1;strokeColor=none;fillColor=none;align=left;verticalAlign=top;spacingLeft=4;spacingRight=4;whiteSpace=wrap;overflow=hidden;rotatable=0;points=[[0,0.5],[1,0.5]];portConstraint=eastwest;" parent="l4nzv7WgrrFAioki1QtH-1" vertex="1">
          <mxGeometry y="52" width="240" height="26" as="geometry" />
        </mxCell>
        <mxCell id="l4nzv7WgrrFAioki1QtH-4" value="+ edges: GraphEdge[]" style="text;html=1;strokeColor=none;fillColor=none;align=left;verticalAlign=top;spacingLeft=4;spacingRight=4;whiteSpace=wrap;overflow=hidden;rotatable=0;points=[[0,0.5],[1,0.5]];portConstraint=eastwest;" parent="l4nzv7WgrrFAioki1QtH-1" vertex="1">
          <mxGeometry y="78" width="240" height="26" as="geometry" />
        </mxCell>
        <mxCell id="l4nzv7WgrrFAioki1QtH-6" value="GraphNode" style="swimlane;html=1;fontStyle=1;align=center;verticalAlign=top;childLayout=stackLayout;horizontal=1;startSize=26;horizontalStack=0;resizeParent=1;resizeLast=0;collapsible=1;marginBottom=0;swimlaneFillColor=#ffffff;rounded=0;shadow=0;comic=0;labelBackgroundColor=none;strokeWidth=1;fillColor=none;fontFamily=Verdana;fontSize=12" parent="1" vertex="1">
          <mxGeometry x="340" y="80" width="160" height="130" as="geometry">
            <mxRectangle x="90" y="83" width="110" height="30" as="alternateBounds" />
          </mxGeometry>
        </mxCell>
        <mxCell id="l4nzv7WgrrFAioki1QtH-7" value="+ id: string" style="text;html=1;strokeColor=none;fillColor=none;align=left;verticalAlign=top;spacingLeft=4;spacingRight=4;whiteSpace=wrap;overflow=hidden;rotatable=0;points=[[0,0.5],[1,0.5]];portConstraint=eastwest;" parent="l4nzv7WgrrFAioki1QtH-6" vertex="1">
          <mxGeometry y="26" width="160" height="26" as="geometry" />
        </mxCell>
        <mxCell id="l4nzv7WgrrFAioki1QtH-8" value="+ label: string" style="text;html=1;strokeColor=none;fillColor=none;align=left;verticalAlign=top;spacingLeft=4;spacingRight=4;whiteSpace=wrap;overflow=hidden;rotatable=0;points=[[0,0.5],[1,0.5]];portConstraint=eastwest;" parent="l4nzv7WgrrFAioki1QtH-6" vertex="1">
          <mxGeometry y="52" width="160" height="26" as="geometry" />
        </mxCell>
        <mxCell id="l4nzv7WgrrFAioki1QtH-9" value="+ type: enum" style="text;html=1;strokeColor=none;fillColor=none;align=left;verticalAlign=top;spacingLeft=4;spacingRight=4;whiteSpace=wrap;overflow=hidden;rotatable=0;points=[[0,0.5],[1,0.5]];portConstraint=eastwest;" parent="l4nzv7WgrrFAioki1QtH-6" vertex="1">
          <mxGeometry y="78" width="160" height="26" as="geometry" />
        </mxCell>
        <mxCell id="l4nzv7WgrrFAioki1QtH-10" value="+ groupId: string | undefined" style="text;html=1;strokeColor=none;fillColor=none;align=left;verticalAlign=top;spacingLeft=4;spacingRight=4;whiteSpace=wrap;overflow=hidden;rotatable=0;points=[[0,0.5],[1,0.5]];portConstraint=eastwest;" parent="l4nzv7WgrrFAioki1QtH-6" vertex="1">
          <mxGeometry y="104" width="160" height="26" as="geometry" />
        </mxCell>
        <mxCell id="l4nzv7WgrrFAioki1QtH-11" value="GraphNodeGroup" style="swimlane;html=1;fontStyle=1;align=center;verticalAlign=top;childLayout=stackLayout;horizontal=1;startSize=26;horizontalStack=0;resizeParent=1;resizeLast=0;collapsible=1;marginBottom=0;swimlaneFillColor=#ffffff;rounded=0;shadow=0;comic=0;labelBackgroundColor=none;strokeWidth=1;fillColor=none;fontFamily=Verdana;fontSize=12" parent="1" vertex="1">
          <mxGeometry x="340" y="238" width="160" height="110" as="geometry">
            <mxRectangle x="90" y="83" width="110" height="30" as="alternateBounds" />
          </mxGeometry>
        </mxCell>
        <mxCell id="l4nzv7WgrrFAioki1QtH-12" value="+ id: string" style="text;html=1;strokeColor=none;fillColor=none;align=left;verticalAlign=top;spacingLeft=4;spacingRight=4;whiteSpace=wrap;overflow=hidden;rotatable=0;points=[[0,0.5],[1,0.5]];portConstraint=eastwest;" parent="l4nzv7WgrrFAioki1QtH-11" vertex="1">
          <mxGeometry y="26" width="160" height="26" as="geometry" />
        </mxCell>
        <mxCell id="l4nzv7WgrrFAioki1QtH-13" value="+ label: string" style="text;html=1;strokeColor=none;fillColor=none;align=left;verticalAlign=top;spacingLeft=4;spacingRight=4;whiteSpace=wrap;overflow=hidden;rotatable=0;points=[[0,0.5],[1,0.5]];portConstraint=eastwest;" parent="l4nzv7WgrrFAioki1QtH-11" vertex="1">
          <mxGeometry y="52" width="160" height="26" as="geometry" />
        </mxCell>
        <mxCell id="JdQO-nol5SR0py4nzEGJ-1" value="+ type: enum" style="text;html=1;strokeColor=none;fillColor=none;align=left;verticalAlign=top;spacingLeft=4;spacingRight=4;whiteSpace=wrap;overflow=hidden;rotatable=0;points=[[0,0.5],[1,0.5]];portConstraint=eastwest;" parent="l4nzv7WgrrFAioki1QtH-11" vertex="1">
          <mxGeometry y="78" width="160" height="26" as="geometry" />
        </mxCell>
        <mxCell id="l4nzv7WgrrFAioki1QtH-14" value="GraphEdge" style="swimlane;html=1;fontStyle=1;align=center;verticalAlign=top;childLayout=stackLayout;horizontal=1;startSize=26;horizontalStack=0;resizeParent=1;resizeLast=0;collapsible=1;marginBottom=0;swimlaneFillColor=#ffffff;rounded=0;shadow=0;comic=0;labelBackgroundColor=none;strokeWidth=1;fillColor=none;fontFamily=Verdana;fontSize=12" parent="1" vertex="1">
          <mxGeometry x="340" y="380" width="160" height="160" as="geometry">
            <mxRectangle x="90" y="83" width="110" height="30" as="alternateBounds" />
          </mxGeometry>
        </mxCell>
        <mxCell id="l4nzv7WgrrFAioki1QtH-15" value="+ id: string" style="text;html=1;strokeColor=none;fillColor=none;align=left;verticalAlign=top;spacingLeft=4;spacingRight=4;whiteSpace=wrap;overflow=hidden;rotatable=0;points=[[0,0.5],[1,0.5]];portConstraint=eastwest;" parent="l4nzv7WgrrFAioki1QtH-14" vertex="1">
          <mxGeometry y="26" width="160" height="26" as="geometry" />
        </mxCell>
        <mxCell id="JdQO-nol5SR0py4nzEGJ-2" value="+ source: string" style="text;html=1;strokeColor=none;fillColor=none;align=left;verticalAlign=top;spacingLeft=4;spacingRight=4;whiteSpace=wrap;overflow=hidden;rotatable=0;points=[[0,0.5],[1,0.5]];portConstraint=eastwest;" parent="l4nzv7WgrrFAioki1QtH-14" vertex="1">
          <mxGeometry y="52" width="160" height="26" as="geometry" />
        </mxCell>
        <mxCell id="JdQO-nol5SR0py4nzEGJ-3" value="+ target: string" style="text;html=1;strokeColor=none;fillColor=none;align=left;verticalAlign=top;spacingLeft=4;spacingRight=4;whiteSpace=wrap;overflow=hidden;rotatable=0;points=[[0,0.5],[1,0.5]];portConstraint=eastwest;" parent="l4nzv7WgrrFAioki1QtH-14" vertex="1">
          <mxGeometry y="78" width="160" height="26" as="geometry" />
        </mxCell>
        <mxCell id="JdQO-nol5SR0py4nzEGJ-4" value="+ label: string" style="text;html=1;strokeColor=none;fillColor=none;align=left;verticalAlign=top;spacingLeft=4;spacingRight=4;whiteSpace=wrap;overflow=hidden;rotatable=0;points=[[0,0.5],[1,0.5]];portConstraint=eastwest;" parent="l4nzv7WgrrFAioki1QtH-14" vertex="1">
          <mxGeometry y="104" width="160" height="26" as="geometry" />
        </mxCell>
        <mxCell id="JdQO-nol5SR0py4nzEGJ-5" value="+ type: enum" style="text;html=1;strokeColor=none;fillColor=none;align=left;verticalAlign=top;spacingLeft=4;spacingRight=4;whiteSpace=wrap;overflow=hidden;rotatable=0;points=[[0,0.5],[1,0.5]];portConstraint=eastwest;" parent="l4nzv7WgrrFAioki1QtH-14" vertex="1">
          <mxGeometry y="130" width="160" height="26" as="geometry" />
        </mxCell>
        <mxCell id="l4nzv7WgrrFAioki1QtH-16" style="edgeStyle=elbowEdgeStyle;html=1;labelBackgroundColor=none;startFill=0;startSize=8;endArrow=classicThin;endFill=1;endSize=16;fontFamily=Verdana;fontSize=12;entryX=0;entryY=0.154;entryDx=0;entryDy=0;entryPerimeter=0;exitX=1;exitY=0.5;exitDx=0;exitDy=0;" parent="1" source="l4nzv7WgrrFAioki1QtH-2" target="l4nzv7WgrrFAioki1QtH-6" edge="1">
          <mxGeometry relative="1" as="geometry">
            <mxPoint x="280" y="171" as="sourcePoint" />
            <mxPoint x="330" y="91" as="targetPoint" />
          </mxGeometry>
        </mxCell>
        <mxCell id="JdQO-nol5SR0py4nzEGJ-6" style="edgeStyle=elbowEdgeStyle;html=1;labelBackgroundColor=none;startFill=0;startSize=8;endArrow=classicThin;endFill=1;endSize=16;fontFamily=Verdana;fontSize=12;entryX=-0.019;entryY=0.1;entryDx=0;entryDy=0;entryPerimeter=0;exitX=1;exitY=0.5;exitDx=0;exitDy=0;" parent="1" source="l4nzv7WgrrFAioki1QtH-3" target="l4nzv7WgrrFAioki1QtH-11" edge="1">
          <mxGeometry relative="1" as="geometry">
            <mxPoint x="290" y="129" as="sourcePoint" />
            <mxPoint x="340" y="110" as="targetPoint" />
          </mxGeometry>
        </mxCell>
        <mxCell id="JdQO-nol5SR0py4nzEGJ-8" style="edgeStyle=elbowEdgeStyle;html=1;labelBackgroundColor=none;startFill=0;startSize=8;endArrow=classicThin;endFill=1;endSize=16;fontFamily=Verdana;fontSize=12;entryX=0;entryY=0.125;entryDx=0;entryDy=0;entryPerimeter=0;exitX=1;exitY=0.5;exitDx=0;exitDy=0;" parent="1" source="l4nzv7WgrrFAioki1QtH-4" target="l4nzv7WgrrFAioki1QtH-14" edge="1">
          <mxGeometry relative="1" as="geometry">
            <mxPoint x="290" y="155" as="sourcePoint" />
            <mxPoint x="345" y="259" as="targetPoint" />
            <Array as="points">
              <mxPoint x="300" y="290" />
            </Array>
          </mxGeometry>
        </mxCell>
      </root>
    </mxGraphModel>
  </diagram>
  <diagram id="kBhBCL3uVzBcvNxinHxJ" name="InterfaceItem">
    <mxGraphModel dx="928" dy="586" grid="1" gridSize="10" guides="1" tooltips="1" connect="1" arrows="1" fold="1" page="1" pageScale="1" pageWidth="1169" pageHeight="827" math="0" shadow="0">
      <root>
        <mxCell id="0" />
        <mxCell id="1" parent="0" />
        <mxCell id="tlR5RdomeUdensAz8cgf-1" value="InterfaceItem&lt;span id=&quot;docs-internal-guid-c941fd45-7fff-7099-64b9-37e3c750d6c4&quot; style=&quot;font-weight:normal;&quot;&gt;&lt;/span&gt;" style="swimlane;html=1;fontStyle=1;align=center;verticalAlign=top;childLayout=stackLayout;horizontal=1;startSize=26;horizontalStack=0;resizeParent=1;resizeLast=0;collapsible=1;marginBottom=0;swimlaneFillColor=#ffffff;rounded=0;shadow=0;comic=0;labelBackgroundColor=none;strokeWidth=1;fillColor=none;fontFamily=Verdana;fontSize=12" parent="1" vertex="1">
          <mxGeometry x="80" y="80" width="180" height="220" as="geometry">
            <mxRectangle x="90" y="83" width="110" height="30" as="alternateBounds" />
          </mxGeometry>
        </mxCell>
        <mxCell id="tlR5RdomeUdensAz8cgf-2" value="+ id: string" style="text;html=1;strokeColor=none;fillColor=none;align=left;verticalAlign=top;spacingLeft=4;spacingRight=4;whiteSpace=wrap;overflow=hidden;rotatable=0;points=[[0,0.5],[1,0.5]];portConstraint=eastwest;" parent="tlR5RdomeUdensAz8cgf-1" vertex="1">
          <mxGeometry y="26" width="180" height="26" as="geometry" />
        </mxCell>
        <mxCell id="tlR5RdomeUdensAz8cgf-3" value="+ type: enum" style="text;html=1;strokeColor=none;fillColor=none;align=left;verticalAlign=top;spacingLeft=4;spacingRight=4;whiteSpace=wrap;overflow=hidden;rotatable=0;points=[[0,0.5],[1,0.5]];portConstraint=eastwest;" parent="tlR5RdomeUdensAz8cgf-1" vertex="1">
          <mxGeometry y="52" width="180" height="26" as="geometry" />
        </mxCell>
        <mxCell id="tlR5RdomeUdensAz8cgf-4" value="+ workloadId: string" style="text;html=1;strokeColor=none;fillColor=none;align=left;verticalAlign=top;spacingLeft=4;spacingRight=4;whiteSpace=wrap;overflow=hidden;rotatable=0;points=[[0,0.5],[1,0.5]];portConstraint=eastwest;" parent="tlR5RdomeUdensAz8cgf-1" vertex="1">
          <mxGeometry y="78" width="180" height="26" as="geometry" />
        </mxCell>
        <mxCell id="tlR5RdomeUdensAz8cgf-5" value="+ podName: string" style="text;html=1;strokeColor=none;fillColor=none;align=left;verticalAlign=top;spacingLeft=4;spacingRight=4;whiteSpace=wrap;overflow=hidden;rotatable=0;points=[[0,0.5],[1,0.5]];portConstraint=eastwest;" parent="tlR5RdomeUdensAz8cgf-1" vertex="1">
          <mxGeometry y="104" width="180" height="26" as="geometry" />
        </mxCell>
        <mxCell id="tlR5RdomeUdensAz8cgf-6" value="+ services: string[]" style="text;html=1;strokeColor=none;fillColor=none;align=left;verticalAlign=top;spacingLeft=4;spacingRight=4;whiteSpace=wrap;overflow=hidden;rotatable=0;points=[[0,0.5],[1,0.5]];portConstraint=eastwest;" parent="tlR5RdomeUdensAz8cgf-1" vertex="1">
          <mxGeometry y="130" width="180" height="26" as="geometry" />
        </mxCell>
        <mxCell id="tlR5RdomeUdensAz8cgf-7" value="+ ipContext: IPContext" style="text;html=1;strokeColor=none;fillColor=none;align=left;verticalAlign=top;spacingLeft=4;spacingRight=4;whiteSpace=wrap;overflow=hidden;rotatable=0;points=[[0,0.5],[1,0.5]];portConstraint=eastwest;" parent="tlR5RdomeUdensAz8cgf-1" vertex="1">
          <mxGeometry y="156" width="180" height="26" as="geometry" />
        </mxCell>
        <mxCell id="tlR5RdomeUdensAz8cgf-8" value="+ metrics: map&amp;lt;string, string&amp;gt;" style="text;html=1;strokeColor=none;fillColor=none;align=left;verticalAlign=top;spacingLeft=4;spacingRight=4;whiteSpace=wrap;overflow=hidden;rotatable=0;points=[[0,0.5],[1,0.5]];portConstraint=eastwest;" parent="tlR5RdomeUdensAz8cgf-1" vertex="1">
          <mxGeometry y="182" width="180" height="26" as="geometry" />
        </mxCell>
      </root>
    </mxGraphModel>
  </diagram>
  <diagram id="EZ5oj-P7gv9D3Jhc3_MI" name="WorkloadItem">
    <mxGraphModel dx="928" dy="586" grid="1" gridSize="10" guides="1" tooltips="1" connect="1" arrows="1" fold="1" page="1" pageScale="1" pageWidth="1169" pageHeight="827" math="0" shadow="0">
      <root>
        <mxCell id="0" />
        <mxCell id="1" parent="0" />
        <mxCell id="29uqq4leqM6ivFkNS__h-1" value="WorkloadItem&lt;span id=&quot;docs-internal-guid-c941fd45-7fff-7099-64b9-37e3c750d6c4&quot; style=&quot;font-weight:normal;&quot;&gt;&lt;/span&gt;" style="swimlane;html=1;fontStyle=1;align=center;verticalAlign=top;childLayout=stackLayout;horizontal=1;startSize=26;horizontalStack=0;resizeParent=1;resizeLast=0;collapsible=1;marginBottom=0;swimlaneFillColor=#ffffff;rounded=0;shadow=0;comic=0;labelBackgroundColor=none;strokeWidth=1;fillColor=none;fontFamily=Verdana;fontSize=12" parent="1" vertex="1">
          <mxGeometry x="80" y="80" width="150" height="190" as="geometry">
            <mxRectangle x="90" y="83" width="110" height="30" as="alternateBounds" />
          </mxGeometry>
        </mxCell>
        <mxCell id="29uqq4leqM6ivFkNS__h-2" value="+ id: string" style="text;html=1;strokeColor=none;fillColor=none;align=left;verticalAlign=top;spacingLeft=4;spacingRight=4;whiteSpace=wrap;overflow=hidden;rotatable=0;points=[[0,0.5],[1,0.5]];portConstraint=eastwest;" parent="29uqq4leqM6ivFkNS__h-1" vertex="1">
          <mxGeometry y="26" width="150" height="26" as="geometry" />
        </mxCell>
        <mxCell id="29uqq4leqM6ivFkNS__h-9" value="+ name: string" style="text;html=1;strokeColor=none;fillColor=none;align=left;verticalAlign=top;spacingLeft=4;spacingRight=4;whiteSpace=wrap;overflow=hidden;rotatable=0;points=[[0,0.5],[1,0.5]];portConstraint=eastwest;" parent="29uqq4leqM6ivFkNS__h-1" vertex="1">
          <mxGeometry y="52" width="150" height="26" as="geometry" />
        </mxCell>
        <mxCell id="29uqq4leqM6ivFkNS__h-3" value="+ type: enum" style="text;html=1;strokeColor=none;fillColor=none;align=left;verticalAlign=top;spacingLeft=4;spacingRight=4;whiteSpace=wrap;overflow=hidden;rotatable=0;points=[[0,0.5],[1,0.5]];portConstraint=eastwest;" parent="29uqq4leqM6ivFkNS__h-1" vertex="1">
          <mxGeometry y="78" width="150" height="26" as="geometry" />
        </mxCell>
        <mxCell id="29uqq4leqM6ivFkNS__h-4" value="+ podName: string" style="text;html=1;strokeColor=none;fillColor=none;align=left;verticalAlign=top;spacingLeft=4;spacingRight=4;whiteSpace=wrap;overflow=hidden;rotatable=0;points=[[0,0.5],[1,0.5]];portConstraint=eastwest;" parent="29uqq4leqM6ivFkNS__h-1" vertex="1">
          <mxGeometry y="104" width="150" height="26" as="geometry" />
        </mxCell>
        <mxCell id="29uqq4leqM6ivFkNS__h-5" value="+ interfaces: string[]" style="text;html=1;strokeColor=none;fillColor=none;align=left;verticalAlign=top;spacingLeft=4;spacingRight=4;whiteSpace=wrap;overflow=hidden;rotatable=0;points=[[0,0.5],[1,0.5]];portConstraint=eastwest;" parent="29uqq4leqM6ivFkNS__h-1" vertex="1">
          <mxGeometry y="130" width="150" height="26" as="geometry" />
        </mxCell>
        <mxCell id="AzUAzeSmyCgWK3xaBduH-1" value="+ labels: string[]" style="text;html=1;strokeColor=none;fillColor=none;align=left;verticalAlign=top;spacingLeft=4;spacingRight=4;whiteSpace=wrap;overflow=hidden;rotatable=0;points=[[0,0.5],[1,0.5]];portConstraint=eastwest;" vertex="1" parent="29uqq4leqM6ivFkNS__h-1">
          <mxGeometry y="156" width="150" height="26" as="geometry" />
        </mxCell>
      </root>
    </mxGraphModel>
  </diagram>
  <diagram id="9Cq_6V2fw-4F2W6dYlAq" name="NetworkServiceBrief">
    <mxGraphModel dx="1168" dy="586" grid="1" gridSize="10" guides="1" tooltips="1" connect="1" arrows="1" fold="1" page="1" pageScale="1" pageWidth="1169" pageHeight="827" math="0" shadow="0">
      <root>
        <mxCell id="0" />
        <mxCell id="1" parent="0" />
        <mxCell id="c81e-Yjw_vy-3zU3gtRU-1" value="NetworkServiceBrief[]&lt;span id=&quot;docs-internal-guid-c941fd45-7fff-7099-64b9-37e3c750d6c4&quot; style=&quot;font-weight:normal;&quot;&gt;&lt;/span&gt;" style="swimlane;html=1;fontStyle=1;align=center;verticalAlign=top;childLayout=stackLayout;horizontal=1;startSize=26;horizontalStack=0;resizeParent=1;resizeLast=0;collapsible=1;marginBottom=0;swimlaneFillColor=#ffffff;rounded=0;shadow=0;comic=0;labelBackgroundColor=none;strokeWidth=1;fillColor=none;fontFamily=Verdana;fontSize=12" parent="1" vertex="1">
          <mxGeometry x="80" y="80" width="210" height="170" as="geometry">
            <mxRectangle x="90" y="83" width="110" height="30" as="alternateBounds" />
          </mxGeometry>
        </mxCell>
        <mxCell id="c81e-Yjw_vy-3zU3gtRU-2" value="+ name: string" style="text;html=1;strokeColor=none;fillColor=none;align=left;verticalAlign=top;spacingLeft=4;spacingRight=4;whiteSpace=wrap;overflow=hidden;rotatable=0;points=[[0,0.5],[1,0.5]];portConstraint=eastwest;" parent="c81e-Yjw_vy-3zU3gtRU-1" vertex="1">
          <mxGeometry y="26" width="210" height="26" as="geometry" />
        </mxCell>
        <mxCell id="c81e-Yjw_vy-3zU3gtRU-3" value="+ payload: enum" style="text;html=1;strokeColor=none;fillColor=none;align=left;verticalAlign=top;spacingLeft=4;spacingRight=4;whiteSpace=wrap;overflow=hidden;rotatable=0;points=[[0,0.5],[1,0.5]];portConstraint=eastwest;" parent="c81e-Yjw_vy-3zU3gtRU-1" vertex="1">
          <mxGeometry y="52" width="210" height="26" as="geometry" />
        </mxCell>
        <mxCell id="c81e-Yjw_vy-3zU3gtRU-4" value="+ matchesCount: number" style="text;html=1;strokeColor=none;fillColor=none;align=left;verticalAlign=top;spacingLeft=4;spacingRight=4;whiteSpace=wrap;overflow=hidden;rotatable=0;points=[[0,0.5],[1,0.5]];portConstraint=eastwest;" parent="c81e-Yjw_vy-3zU3gtRU-1" vertex="1">
          <mxGeometry y="78" width="210" height="26" as="geometry" />
        </mxCell>
        <mxCell id="c81e-Yjw_vy-3zU3gtRU-5" value="+ clientsCount: number" style="text;html=1;strokeColor=none;fillColor=none;align=left;verticalAlign=top;spacingLeft=4;spacingRight=4;whiteSpace=wrap;overflow=hidden;rotatable=0;points=[[0,0.5],[1,0.5]];portConstraint=eastwest;" parent="c81e-Yjw_vy-3zU3gtRU-1" vertex="1">
          <mxGeometry y="104" width="210" height="26" as="geometry" />
        </mxCell>
        <mxCell id="c81e-Yjw_vy-3zU3gtRU-6" value="+ endpointsCount: number" style="text;html=1;strokeColor=none;fillColor=none;align=left;verticalAlign=top;spacingLeft=4;spacingRight=4;whiteSpace=wrap;overflow=hidden;rotatable=0;points=[[0,0.5],[1,0.5]];portConstraint=eastwest;" parent="c81e-Yjw_vy-3zU3gtRU-1" vertex="1">
          <mxGeometry y="130" width="210" height="26" as="geometry" />
        </mxCell>
      </root>
    </mxGraphModel>
  </diagram>
  <diagram id="C99cox1KjQKjxSFUyGsK" name="NetworkServiceDetails">
    <mxGraphModel dx="1168" dy="586" grid="1" gridSize="10" guides="1" tooltips="1" connect="1" arrows="1" fold="1" page="1" pageScale="1" pageWidth="1169" pageHeight="827" math="0" shadow="0">
      <root>
        <mxCell id="0" />
        <mxCell id="1" parent="0" />
        <mxCell id="gGRPYpcCzzf5RyWpDlmC-1" value="NetworkServiceDetails&lt;span id=&quot;docs-internal-guid-c941fd45-7fff-7099-64b9-37e3c750d6c4&quot; style=&quot;font-weight:normal;&quot;&gt;&lt;/span&gt;" style="swimlane;html=1;fontStyle=1;align=center;verticalAlign=top;childLayout=stackLayout;horizontal=1;startSize=26;horizontalStack=0;resizeParent=1;resizeLast=0;collapsible=1;marginBottom=0;swimlaneFillColor=#ffffff;rounded=0;shadow=0;comic=0;labelBackgroundColor=none;strokeWidth=1;fillColor=none;fontFamily=Verdana;fontSize=12" vertex="1" parent="1">
          <mxGeometry x="80" y="80" width="210" height="120" as="geometry">
            <mxRectangle x="90" y="83" width="110" height="30" as="alternateBounds" />
          </mxGeometry>
        </mxCell>
        <mxCell id="gGRPYpcCzzf5RyWpDlmC-2" value="+ ns: NetworkService" style="text;html=1;strokeColor=none;fillColor=none;align=left;verticalAlign=top;spacingLeft=4;spacingRight=4;whiteSpace=wrap;overflow=hidden;rotatable=0;points=[[0,0.5],[1,0.5]];portConstraint=eastwest;" vertex="1" parent="gGRPYpcCzzf5RyWpDlmC-1">
          <mxGeometry y="26" width="210" height="26" as="geometry" />
        </mxCell>
        <mxCell id="gGRPYpcCzzf5RyWpDlmC-3" value="+ clientNames: string[]" style="text;html=1;strokeColor=none;fillColor=none;align=left;verticalAlign=top;spacingLeft=4;spacingRight=4;whiteSpace=wrap;overflow=hidden;rotatable=0;points=[[0,0.5],[1,0.5]];portConstraint=eastwest;" vertex="1" parent="gGRPYpcCzzf5RyWpDlmC-1">
          <mxGeometry y="52" width="210" height="26" as="geometry" />
        </mxCell>
        <mxCell id="gGRPYpcCzzf5RyWpDlmC-6" value="+ endpointNames: string[]" style="text;html=1;strokeColor=none;fillColor=none;align=left;verticalAlign=top;spacingLeft=4;spacingRight=4;whiteSpace=wrap;overflow=hidden;rotatable=0;points=[[0,0.5],[1,0.5]];portConstraint=eastwest;" vertex="1" parent="gGRPYpcCzzf5RyWpDlmC-1">
          <mxGeometry y="78" width="210" height="26" as="geometry" />
        </mxCell>
      </root>
    </mxGraphModel>
  </diagram>
</mxfile>
